<?xml version="1.0" encoding="UTF-8"?>
<svg id="Layer_1" data-name="Layer 1" xmlns="http://www.w3.org/2000/svg" xmlns:xlink="http://www.w3.org/1999/xlink" viewBox="0 0 229.31 284.52">
  <defs>
    <style>
      .cls-1 {
        fill: url(#linear-gradient-5);
      }

      .cls-2 {
        fill: url(#linear-gradient-4);
      }

      .cls-3 {
        fill: url(#linear-gradient-3);
      }

      .cls-4 {
        fill: url(#linear-gradient-2);
      }

      .cls-5 {
        fill: url(#linear-gradient);
      }

      .cls-6 {
        opacity: .64;
      }

      .cls-6, .cls-7 {
        fill: none;
        stroke: #fdffcc;
        stroke-miterlimit: 10;
        stroke-width: 3px;
      }

      .cls-7 {
        opacity: .36;
      }

      .cls-8 {
        fill: #7200dd;
      }

      .cls-9 {
        fill: #ffb621;
      }
    </style>
    <linearGradient id="linear-gradient" x1="19.62" y1="75.22" x2="70.37" y2="24.46" gradientUnits="userSpaceOnUse">
      <stop offset="0" stop-color="#2a80f0"/>
      <stop offset=".11" stop-color="#4479ec"/>
      <stop offset=".31" stop-color="#6e6ee7"/>
      <stop offset=".5" stop-color="#8e65e4"/>
      <stop offset=".68" stop-color="#a65fe1"/>
      <stop offset=".85" stop-color="#b45cdf"/>
      <stop offset="1" stop-color="#b95bdf"/>
    </linearGradient>
    <linearGradient id="linear-gradient-2" x1="171.55" y1="62.36" x2="221.78" y2="12.13" gradientUnits="userSpaceOnUse">
      <stop offset="0" stop-color="#fb9c60"/>
      <stop offset=".29" stop-color="#fbad59"/>
      <stop offset=".72" stop-color="#fcc352"/>
      <stop offset="1" stop-color="#fdcb50"/>
    </linearGradient>
    <linearGradient id="linear-gradient-3" x1="14.62" y1="104.43" x2="83.81" y2="104.43" gradientUnits="userSpaceOnUse">
      <stop offset="0" stop-color="#2aaaf0"/>
      <stop offset="1" stop-color="#9666dc"/>
    </linearGradient>
    <linearGradient id="linear-gradient-4" x1="61.96" y1="128.23" x2="128.56" y2="128.23" gradientUnits="userSpaceOnUse">
      <stop offset="0" stop-color="#9a45b8"/>
      <stop offset="1" stop-color="#ca4973"/>
    </linearGradient>
    <linearGradient id="linear-gradient-5" x1="148.87" y1="199.31" x2="148.87" y2="28.85" gradientUnits="userSpaceOnUse">
      <stop offset="0" stop-color="#e84599"/>
      <stop offset=".16" stop-color="#ea5589"/>
      <stop offset=".5" stop-color="#f0736c"/>
      <stop offset=".79" stop-color="#f3865b"/>
      <stop offset="1" stop-color="#f58d55"/>
    </linearGradient>
  </defs>
  <path class="cls-5" d="M4.43,48.29C1.46,42.14-1.77,23.92,11.96,11.96S41.2,2.66,41.2,2.66c0,0,14.16,1.6,25.7,20.82s27.23,48.24,27.23,48.24l-44.96,13.79s-31.21-13.75-29.99-10.73c.12.3-11.79-20.34-14.75-26.49Z"/>
  <path class="cls-4" d="M150.19,44.75l14.62-25.25s18.61-27.91,46.08-12.41,12.85,43.86,12.85,43.86l-14.02,23.7-59.53-29.91Z"/>
  <path class="cls-3" d="M64.68,155.95L14.62,66.9s23.04,6.65,38.1,2.66,31.09-16.65,31.09-16.65l-19.12,103.04Z"/>
  <path class="cls-2" d="M103.53,203.58s-12.26-2.36-22.38-19.01c-8.32-13.69-16.47-28.61-16.47-28.61,0,0-7.46-34.3,2.29-60s16.54-43.93,16.84-43.05,11.08,20.01,11.08,20.01c0,0,3.84,8.64,14.18,14.18,7.9,3.77,19.49,1.77,19.49,1.77l-25.02,114.71Z"/>
  <path class="cls-1" d="M108.1,115.63l42.09-70.89s19.05-17.28,40.76-5.32c21.71,11.96,19.94,33.23,19.94,33.23l-57.44,104.19s-16.54,30.87-40.47,28.72c-23.92-3.1-25.39-13.51-26.14-29.24-.57-11.96,10.19-42.09,21.27-60.7Z"/>
  <g>
    <path d="M14.91,261.53l-7.68-23.04h7.58l2.78,10.08,1.58,8.02h.19l1.58-8.02,2.93-10.08h7.54l-8.06,23.04h-8.45Z"/>
    <path d="M38.67,233.98c-1.18,0-2.1-.34-2.76-1.03-.66-.69-.98-1.51-.98-2.47s.33-1.78.98-2.47c.66-.69,1.58-1.03,2.76-1.03s2.1.34,2.76,1.01c.66.67.98,1.5.98,2.5s-.32,1.82-.96,2.5c-.64.67-1.57,1.01-2.78,1.01ZM35.12,261.53v-23.04h7.1v23.04h-7.1Z"/>
    <path d="M60.71,262.06c-1.47,0-2.74-.23-3.82-.7-1.07-.46-1.98-1.11-2.71-1.94h-.19l-.43,2.11h-5.14v-34.32h7.06v12.86c.74-.61,1.61-1.11,2.62-1.51,1.01-.4,2.1-.6,3.29-.6,3.2,0,5.71,1.07,7.54,3.22s2.74,5.12,2.74,8.93c0,2.46-.48,4.59-1.44,6.38-.96,1.79-2.26,3.17-3.91,4.13-1.65.96-3.51,1.44-5.59,1.44ZM58.74,256.87c1.47,0,2.78-.54,3.91-1.61,1.14-1.07,1.7-2.73,1.7-4.97s-.46-4.08-1.37-5.23c-.91-1.15-2.17-1.73-3.77-1.73-.77,0-1.5.2-2.18.6-.69.4-1.19.79-1.51,1.18v10.37c.35.42.82.75,1.39,1.01.58.26,1.18.38,1.82.38Z"/>
    <path d="M87.59,262.06c-2.3,0-4.43-.42-6.38-1.25-1.95-.83-3.51-2.11-4.68-3.84-1.17-1.73-1.75-3.95-1.75-6.67,0-2.46.49-4.62,1.46-6.46.98-1.84,2.34-3.28,4.1-4.32,1.76-1.04,3.78-1.56,6.05-1.56,3.17,0,5.7.96,7.58,2.88,1.89,1.92,2.83,4.66,2.83,8.21v3.02h-14.88v.19c0,1.6.62,2.77,1.87,3.5s2.82,1.1,4.7,1.1c1.31,0,2.46-.14,3.46-.41.99-.27,1.82-.57,2.5-.89l1.3,4.9c-.86.42-1.96.78-3.29,1.1-1.33.32-2.95.48-4.87.48ZM82.07,247.32l7.49-.1c0-1.09-.26-2.07-.79-2.95-.53-.88-1.4-1.32-2.62-1.32-1.09,0-2.01.39-2.76,1.18-.75.79-1.19,1.85-1.32,3.19Z"/>
    <path d="M101.17,272.57v-34.08h5.28l.67,2.45c.93-.93,2.01-1.66,3.24-2.18,1.23-.53,2.58-.79,4.06-.79,2.98,0,5.34,1.05,7.1,3.14s2.64,4.92,2.64,8.47c0,2.66-.52,4.91-1.56,6.77-1.04,1.86-2.45,3.27-4.22,4.25-1.78.98-3.75,1.46-5.93,1.46-.8,0-1.58-.09-2.35-.26s-1.39-.39-1.87-.65v11.42h-7.06ZM111.54,256.87c.86,0,1.7-.23,2.52-.7s1.49-1.22,2.02-2.26c.53-1.04.79-2.42.79-4.15,0-1.82-.38-3.37-1.15-4.63s-1.87-1.9-3.31-1.9c-.96,0-1.81.22-2.54.67-.74.45-1.28.9-1.63,1.34v10.56c.8.7,1.9,1.06,3.31,1.06Z"/>
    <path d="M139.23,262.06c-2.27,0-4.3-.46-6.1-1.37s-3.21-2.25-4.25-4.01-1.56-3.87-1.56-6.34c0-2.62.54-4.86,1.61-6.7,1.07-1.84,2.52-3.25,4.34-4.22,1.82-.98,3.87-1.46,6.14-1.46s4.3.45,6.1,1.34c1.79.9,3.21,2.23,4.25,4.01,1.04,1.78,1.56,3.96,1.56,6.55s-.54,4.7-1.61,6.53-2.52,3.22-4.34,4.2c-1.82.98-3.87,1.46-6.14,1.46ZM139.38,256.87c.8,0,1.55-.22,2.26-.65.7-.43,1.28-1.14,1.73-2.14.45-.99.67-2.32.67-3.98,0-2.5-.48-4.28-1.44-5.35-.96-1.07-2.06-1.61-3.31-1.61-.8,0-1.55.21-2.26.62-.7.42-1.28,1.13-1.73,2.14s-.67,2.41-.67,4.2c0,2.34.48,4.05,1.44,5.14s2.06,1.63,3.31,1.63Z"/>
    <path d="M159.78,233.98c-1.18,0-2.1-.34-2.76-1.03-.66-.69-.98-1.51-.98-2.47s.33-1.78.98-2.47c.66-.69,1.58-1.03,2.76-1.03s2.1.34,2.76,1.01c.66.67.98,1.5.98,2.5s-.32,1.82-.96,2.5c-.64.67-1.57,1.01-2.78,1.01ZM156.22,261.53v-23.04h7.1v23.04h-7.1Z"/>
    <path d="M169.43,261.53v-23.04h5.52l.82,2.88c1.02-1.06,2.18-1.89,3.48-2.5,1.3-.61,2.68-.91,4.15-.91,2.59,0,4.58.71,5.95,2.11,1.38,1.41,2.06,3.47,2.06,6.19v15.26h-7.1v-14.54c0-1.12-.26-2.01-.79-2.66-.53-.66-1.3-.98-2.33-.98-.77,0-1.58.22-2.42.67-.85.45-1.59,1.04-2.23,1.78v15.74h-7.1Z"/>
    <path d="M206.19,261.53c-2.98,0-5.08-.58-6.31-1.73-1.23-1.15-1.85-2.9-1.85-5.23v-10.99h-3.6v-5.09h3.6v-7.01h7.06v7.01h5.9v5.09h-5.9v9.74c0,1.06.24,1.79.72,2.21.48.42,1.12.62,1.92.62.64,0,1.28-.06,1.92-.19.64-.13,1.13-.3,1.49-.53l1.06,4.85c-.51.29-1.33.57-2.45.84-1.12.27-2.3.41-3.55.41Z"/>
    <ellipse class="cls-8" cx="38.73" cy="230.44" rx="3.81" ry="3.65"/>
    <ellipse class="cls-9" cx="159.82" cy="230.44" rx="3.84" ry="3.65"/>
  </g>
  <g>
    <circle class="cls-6" cx="194.35" cy="36.51" r="20"/>
    <circle class="cls-7" cx="194.35" cy="36.51" r="13.94"/>
  </g>
</svg>